<?xml version="1.0" standalone="no"?>
<!DOCTYPE svg PUBLIC "-//W3C//DTD SVG 20010904//EN"
 "http://www.w3.org/TR/2001/REC-SVG-20010904/DTD/svg10.dtd">
<svg version="1.0" xmlns="http://www.w3.org/2000/svg"
 width="279.000000pt" height="279.000000pt" viewBox="0 0 279.000000 279.000000"
 preserveAspectRatio="xMidYMid meet">
<metadata>
Created by potrace 1.11, written by Peter Selinger 2001-2013
</metadata>
<g transform="translate(0.000000,279.000000) scale(0.100000,-0.100000)"
fill="#000000" stroke="none">
<path d="M630 2025 l0 -305 -30 0 c-89 0 -241 -52 -327 -112 -115 -81 -192
-183 -240 -320 -21 -59 -26 -93 -27 -173 -1 -123 7 -174 40 -256 79 -193 239
-332 437 -379 78 -19 127 -20 1189 -20 610 0 1108 2 1108 6 0 4 -39 73 -95
166 -17 29 -77 131 -95 163 -10 17 -34 57 -54 90 l-36 60 0 693 0 692 -935 0
-935 0 0 -305z"/>
</g>
</svg>
